<?xml version="1.0" standalone="no"?><!DOCTYPE svg PUBLIC "-//W3C//DTD SVG 1.1//EN" "http://www.w3.org/Graphics/SVG/1.1/DTD/svg11.dtd"><svg t="1736142523097" class="icon" viewBox="0 0 1024 1024" version="1.1" xmlns="http://www.w3.org/2000/svg" p-id="1078" xmlns:xlink="http://www.w3.org/1999/xlink" width="200" height="200"><path d="M176.853333 258.816a36.949333 36.949333 0 0 1 36.864-39.381333h553.898667c21.333333 0 38.272 18.048 36.864 39.381333l-42.666667 639.274667a36.949333 36.949333 0 0 1-36.821333 34.474666H256.341333a36.949333 36.949333 0 0 1-36.864-34.474666L176.853333 258.816z m75.562667 33.749333l37.802667 566.869334h400.896l37.802666-566.869334H252.416z" p-id="1079"></path><path d="M758.058667 68.992a36.565333 36.565333 0 0 1-16.384 49.066667l-153.514667 76.757333L505.6 773.12a36.565333 36.565333 0 1 1-72.405333-10.325333L518.4 165.674667a36.949333 36.949333 0 0 1 20.053333-27.818667l170.496-85.248a36.565333 36.565333 0 0 1 49.066667 16.384z" p-id="1080"></path><path d="M219.434667 512c0-20.181333 16.384-36.565333 36.565333-36.565333h469.333333a36.565333 36.565333 0 1 1 0 73.130666H256A36.565333 36.565333 0 0 1 219.434667 512z" p-id="1081"></path></svg>